<?xml version="1.0" standalone="no"?>
<!DOCTYPE svg PUBLIC "-//W3C//DTD SVG 20010904//EN"
 "http://www.w3.org/TR/2001/REC-SVG-20010904/DTD/svg10.dtd">
<svg version="1.0" xmlns="http://www.w3.org/2000/svg"
 width="474.000000pt" height="456.000000pt" viewBox="0 0 474.000000 456.000000"
 preserveAspectRatio="xMidYMid meet">
<metadata>
Created by potrace 1.16, written by Peter Selinger 2001-2019
</metadata>
<g transform="translate(0.000000,456.000000) scale(0.100000,-0.100000)"
fill="#000000" stroke="none">
<path style="fill: white;" d="M2138 4206 c-61 -22 -125 -64 -162 -107 -58 -69 -78 -123 -85 -228
l-6 -94 -39 -13 c-21 -8 -76 -30 -122 -50 l-84 -36 -55 50 c-30 28 -81 63
-113 79 -50 24 -68 28 -147 28 -137 0 -184 -27 -356 -202 -166 -169 -183 -203
-177 -348 5 -107 32 -168 108 -249 l48 -51 -29 -63 c-16 -35 -38 -90 -50 -122
l-21 -57 -88 -5 c-182 -11 -313 -118 -350 -288 -8 -35 -11 -117 -9 -230 4
-172 5 -176 35 -240 38 -79 97 -140 172 -177 45 -22 76 -29 146 -33 l89 -5 42
-100 c22 -55 47 -110 54 -123 11 -21 8 -28 -47 -87 -83 -88 -105 -149 -100
-270 6 -128 29 -169 187 -327 155 -155 200 -181 331 -186 115 -5 179 19 264
99 l64 59 75 -34 c41 -19 94 -40 116 -47 23 -7 45 -17 50 -23 5 -6 11 -49 12
-96 3 -67 10 -96 31 -140 37 -75 100 -137 178 -174 64 -31 67 -31 247 -34 207
-4 262 6 350 64 100 65 163 189 163 319 l0 62 63 23 c34 12 88 36 120 52 l58
29 57 -52 c81 -74 147 -103 250 -107 68 -3 94 0 145 19 54 20 79 39 200 158
158 155 193 210 203 322 11 110 -26 206 -114 301 l-44 47 45 108 c24 59 47
115 50 124 4 13 24 17 99 21 82 3 100 8 156 37 74 40 125 93 161 170 26 55 26
59 26 276 0 255 -5 274 -95 369 -70 74 -146 107 -261 114 l-87 5 -12 41 c-7
22 -27 74 -46 115 -19 41 -34 78 -34 84 0 6 23 34 51 64 123 130 142 307 48
455 -17 25 -83 98 -148 160 -151 148 -198 172 -326 173 -78 0 -98 -4 -150 -28
-33 -15 -83 -51 -112 -79 l-52 -51 -38 16 c-21 8 -76 31 -123 50 l-85 35 -7
85 c-9 117 -42 190 -119 261 -93 87 -130 96 -367 96 -136 -1 -208 -5 -234 -14z
m428 -235 c51 -31 64 -73 64 -204 0 -152 7 -161 160 -212 60 -20 153 -58 207
-86 143 -72 152 -70 267 40 146 139 171 137 333 -22 169 -166 172 -193 33
-341 -83 -88 -90 -99 -90 -137 0 -28 11 -60 35 -103 45 -80 87 -183 110 -269
14 -52 26 -75 52 -97 33 -30 35 -30 149 -30 132 0 174 -13 205 -64 18 -28 19
-48 17 -203 l-3 -173 -33 -32 -32 -33 -134 -5 c-177 -7 -177 -7 -232 -166 -22
-65 -62 -161 -87 -211 -33 -66 -47 -105 -47 -134 0 -38 6 -47 89 -133 136
-141 135 -170 -11 -319 -120 -123 -141 -137 -201 -137 -49 0 -51 2 -136 84
-132 128 -135 129 -283 53 -57 -30 -151 -69 -207 -87 -57 -18 -115 -43 -130
-55 -25 -22 -26 -27 -31 -158 -4 -117 -8 -140 -26 -164 -39 -53 -74 -63 -232
-63 -225 0 -252 22 -252 203 0 112 -11 158 -46 189 -11 9 -64 31 -119 48 -55
18 -149 57 -209 87 -144 72 -152 71 -260 -36 -95 -93 -109 -101 -172 -101 -48
0 -48 0 -171 123 -123 123 -123 123 -123 170 0 63 15 89 95 167 69 68 95 105
95 139 0 11 -24 68 -54 128 -30 59 -69 153 -86 208 -22 67 -42 110 -61 130
-29 30 -30 30 -162 35 -203 8 -217 23 -217 252 0 158 10 193 63 232 24 18 48
22 155 26 173 7 173 7 218 152 14 45 53 139 86 207 78 160 77 162 -43 287 -86
89 -89 94 -89 139 0 25 6 58 14 73 8 15 61 73 118 128 153 149 181 150 325 13
116 -111 126 -113 272 -39 54 27 142 64 197 83 119 40 140 51 156 80 7 12 14
81 18 155 l5 134 38 34 37 34 167 0 c147 0 172 -2 199 -19z"/>
<path style="fill: white;" d="M2234 3100 c-452 -82 -759 -485 -713 -937 30 -289 210 -548 473 -677
511 -251 1114 51 1220 613 82 430 -187 859 -616 981 -83 24 -281 35 -364 20z
m268 -235 c182 -38 349 -170 431 -339 89 -182 87 -369 -4 -556 -78 -156 -233
-282 -404 -325 -68 -17 -207 -20 -286 -5 -75 14 -204 79 -268 134 -151 131
-221 282 -221 481 0 174 57 312 180 436 153 154 365 218 572 174z"/>
</g>
</svg>
