<?xml version="1.0" standalone="no"?>
<!DOCTYPE svg PUBLIC "-//W3C//DTD SVG 20010904//EN"
 "http://www.w3.org/TR/2001/REC-SVG-20010904/DTD/svg10.dtd">
<svg version="1.0" xmlns="http://www.w3.org/2000/svg"
 width="643.000000pt" height="693.000000pt" viewBox="0 0 643.000000 693.000000"
 preserveAspectRatio="xMidYMid meet">
<metadata>
Created by potrace 1.16, written by Peter Selinger 2001-2019
</metadata>
<g transform="translate(0.000000,693.000000) scale(0.100000,-0.100000)"
fill="#000000" stroke="none">
<path style="fill: white;" d="M6198 6925 c-10 -10 -484 -126 -673 -164 -733 -147 -1595 -246 -2538
-291 -114 -5 -217 -14 -227 -20 -11 -6 -28 -23 -38 -37 -16 -26 -17 -148 -22
-2118 l-5 -2090 -28 -59 c-38 -83 -86 -137 -165 -189 -146 -96 -292 -133 -585
-147 -215 -10 -287 -20 -387 -51 -330 -104 -523 -380 -560 -799 -39 -452 125
-765 468 -890 221 -80 569 -90 883 -26 472 98 725 371 809 875 35 206 42 422
47 1495 l5 1048 32 -6 c90 -18 392 -26 624 -16 775 34 1585 171 1695 288 37
40 58 114 59 208 0 110 -18 191 -49 221 -30 31 -51 29 -263 -21 -269 -64 -616
-114 -1020 -147 -74 -6 -347 -13 -606 -16 l-472 -5 -6 598 c-3 330 -9 762 -12
962 l-6 362 98 0 c55 0 176 5 269 10 1092 65 2659 354 2839 524 39 37 66 114
66 190 0 115 -59 275 -110 301 -27 14 -111 21 -122 10z"/>
<path style="fill: white;" d="M1380 2813 c-209 -15 -481 -71 -665 -137 -196 -71 -468 -219 -578
-315 -20 -18 -59 -67 -87 -108 -43 -65 -50 -81 -50 -125 0 -27 7 -66 16 -85
21 -43 94 -99 148 -114 68 -19 100 -2 222 118 60 60 147 134 194 165 315 210
712 314 1167 306 179 -3 182 -3 206 21 32 29 42 85 27 142 -15 54 -34 77 -85
100 -69 31 -320 46 -515 32z"/>
<path style="fill: white;" d="M1410 2363 c-253 -25 -506 -116 -691 -250 -180 -129 -219 -256 -99
-318 62 -32 96 -20 152 53 149 193 458 328 798 347 107 6 120 14 120 75 0 47
-22 77 -68 90 -35 9 -134 11 -212 3z"/>
<path style="fill: white;" d="M1335 2024 c-129 -31 -306 -140 -360 -222 -36 -55 -41 -92 -16 -123
35 -45 60 -44 101 3 77 91 135 139 214 178 79 39 199 70 271 70 35 0 45 13 45
55 0 44 -24 55 -113 54 -45 0 -109 -7 -142 -15z"/>
</g>
</svg>
