<?xml version="1.0" standalone="no"?>
<!DOCTYPE svg PUBLIC "-//W3C//DTD SVG 20010904//EN"
 "http://www.w3.org/TR/2001/REC-SVG-20010904/DTD/svg10.dtd">
<svg version="1.0" xmlns="http://www.w3.org/2000/svg"
 width="518.000000pt" height="480.000000pt" viewBox="0 0 518.000000 480.000000"
 preserveAspectRatio="xMidYMid meet">
<metadata>
Created by potrace 1.16, written by Peter Selinger 2001-2019
</metadata>
<g transform="translate(0.000000,480.000000) scale(0.100000,-0.100000)"
fill="#000000" stroke="none">
<path style="fill: white;" d="M3170 4219 c-78 -15 -187 -76 -249 -139 -98 -100 -151 -226 -151
-359 1 -148 46 -259 149 -362 103 -103 212 -149 357 -149 193 0 371 111 454
285 41 86 53 153 48 262 -5 82 -10 102 -46 177 -103 216 -329 330 -562 285z
m227 -219 c60 -26 127 -93 154 -153 33 -73 33 -192 0 -259 -54 -110 -156 -173
-281 -173 -120 1 -210 57 -267 168 -37 71 -39 188 -5 262 70 153 246 222 399
155z"/>
<path style="fill: white;" d="M3130 3119 c-165 -19 -346 -67 -450 -119 -123 -62 -223 -159 -269
-261 -66 -143 23 -341 172 -384 47 -14 139 -15 718 -13 663 3 664 3 705 25 57
30 119 104 140 166 37 109 16 208 -65 299 -189 213 -576 329 -951 287z m376
-215 c85 -18 226 -64 286 -95 21 -11 67 -47 103 -80 56 -53 65 -66 65 -96 0
-25 -8 -43 -29 -64 l-30 -29 -631 2 -632 3 -24 28 c-39 45 -33 89 18 138 24
23 61 54 84 70 81 55 269 117 420 138 90 13 271 5 370 -15z"/>
<path style="fill: white;" d="M827 2305 c-291 -79 -317 -91 -317 -150 0 -42 286 -1228 305 -1264
29 -57 45 -55 339 25 317 86 303 81 354 128 l45 41 106 0 c113 -1 401 -52 851
-152 303 -67 433 -63 636 18 43 17 194 74 334 126 371 137 389 147 715 397
352 271 404 318 444 398 86 172 -12 350 -194 351 -89 0 -151 -23 -345 -128
-286 -155 -442 -194 -568 -141 -124 52 -355 86 -586 86 -163 0 -203 10 -411
102 -338 150 -471 188 -653 188 -127 0 -222 -21 -346 -76 -45 -19 -113 -46
-152 -58 l-72 -23 -16 57 c-26 95 -87 151 -163 149 -21 0 -159 -33 -306 -74z
m410 -630 c67 -275 121 -500 120 -502 -4 -3 -357 -101 -381 -105 -16 -3 -31
47 -137 482 -65 267 -118 494 -119 506 0 19 20 26 188 72 103 28 191 49 197
48 5 -1 64 -227 132 -501z m810 449 c83 -18 271 -90 442 -169 210 -96 212 -97
481 -105 321 -11 487 -45 563 -117 34 -33 36 -76 4 -97 -36 -24 -162 -39 -262
-32 -49 4 -164 16 -255 27 -238 30 -396 14 -456 -46 -47 -47 -22 -143 41 -159
14 -4 51 1 83 11 75 22 194 21 401 -6 321 -41 481 -22 586 70 53 47 75 99 75
181 l0 67 58 15 c152 43 227 73 347 140 226 128 261 142 301 124 90 -41 -61
-191 -527 -519 -159 -111 -204 -135 -399 -209 -585 -222 -606 -230 -689 -230
-24 0 -278 48 -565 107 -485 99 -529 106 -633 106 -96 -1 -113 1 -117 16 -30
98 -165 686 -159 691 5 4 39 15 77 24 38 9 106 34 150 55 173 82 279 95 453
55z"/>
<path style="fill: white;" d="M1048 1414 c-117 -63 -34 -253 94 -215 66 20 104 101 74 159 -34 67
-105 91 -168 56z"/>
</g>
</svg>
