<?xml version="1.0" standalone="no"?>
<!DOCTYPE svg PUBLIC "-//W3C//DTD SVG 20010904//EN"
 "http://www.w3.org/TR/2001/REC-SVG-20010904/DTD/svg10.dtd">
<svg version="1.0" xmlns="http://www.w3.org/2000/svg"
 width="184.000000pt" height="182.000000pt" viewBox="0 0 184.000000 182.000000"
 preserveAspectRatio="xMidYMid meet">
<metadata>
Created by potrace 1.16, written by Peter Selinger 2001-2019
</metadata>
<g transform="translate(0.000000,182.000000) scale(0.100000,-0.100000)"
fill="#000000" stroke="none">
<path style="fill: white;" d="M917 1693 c-4 -3 -7 -87 -7 -185 l0 -178 -30 0 -30 0 0 150 c0 127
-2 150 -15 150 -13 0 -15 -24 -15 -155 l0 -155 -26 -10 c-14 -6 -27 -10 -29
-10 -2 0 -6 42 -7 92 -3 79 -6 93 -20 96 -16 3 -18 -7 -18 -105 l0 -108 -30
-17 -30 -17 0 153 c0 84 -3 155 -6 159 -3 3 -12 3 -20 0 -11 -4 -14 -39 -14
-177 l0 -172 -30 -34 -29 -35 -1 108 c0 88 -3 107 -15 107 -13 0 -15 -22 -15
-139 0 -105 -4 -149 -17 -182 -11 -31 -17 -75 -17 -144 0 -69 6 -113 17 -144
13 -32 17 -76 17 -172 0 -108 2 -129 15 -129 22 0 21 250 -1 327 -24 83 -16
211 18 286 35 74 118 162 189 198 245 123 534 -25 581 -299 30 -174 -54 -343
-214 -428 -72 -38 -74 -39 -183 -39 -98 0 -116 3 -167 27 -31 14 -77 45 -102
69 l-46 42 2 -199 c3 -169 5 -199 18 -199 13 0 15 25 18 153 l3 153 29 -18
c29 -17 29 -18 32 -117 2 -82 6 -101 18 -101 12 0 16 18 18 88 3 89 7 96 43
77 17 -10 19 -23 19 -161 0 -116 3 -150 13 -147 9 3 13 44 15 146 l3 142 29 0
30 0 2 -177 c3 -160 5 -178 21 -181 16 -3 17 10 17 176 l0 180 30 4 29 4 3
-145 c3 -122 5 -146 18 -146 13 0 15 25 18 151 2 147 3 152 25 158 12 3 25 6
29 6 4 0 9 -39 10 -87 4 -118 22 -109 26 12 3 91 4 95 31 115 16 11 32 20 35
20 3 0 6 -70 6 -155 0 -131 2 -155 15 -155 13 0 15 26 15 171 l0 170 28 35 27
34 5 -92 c4 -78 8 -93 23 -96 15 -3 17 8 17 130 0 89 5 149 15 182 8 27 15 86
15 131 0 45 -7 104 -15 131 -10 33 -15 94 -15 192 0 135 -1 142 -20 142 -19 0
-20 -7 -20 -105 l0 -106 -30 34 -30 34 -2 172 c-4 222 -21 234 -28 19 l-5
-157 -32 20 -33 21 0 104 c0 86 -3 104 -15 104 -12 0 -15 -17 -15 -95 0 -52
-2 -95 -4 -95 -3 0 -16 4 -30 10 l-25 9 -3 153 c-3 128 -5 153 -18 153 -13 0
-15 -24 -18 -147 l-3 -148 -29 0 -30 0 0 185 c0 148 -3 185 -13 185 -8 0 -17
-3 -20 -7z"/>
<path style="fill: white;" d="M435 1237 c-10 -25 0 -712 10 -712 6 0 11 129 13 363 1 246 -1 362
-8 362 -6 0 -13 -6 -15 -13z"/>
<path style="fill: white;" d="M1407 1244 c-4 -4 -7 -166 -7 -360 0 -345 4 -395 31 -353 5 8 8 171
6 363 -2 333 -5 374 -30 350z"/>
<path style="fill: white;" d="M237 1133 c-10 -10 -8 -476 2 -492 5 -7 14 -10 20 -7 17 11 15 506
-2 506 -8 0 -17 -3 -20 -7z"/>
<path style="fill: white;" d="M1597 1133 c-10 -10 -8 -476 2 -492 5 -7 14 -10 20 -7 17 11 15 506
-2 506 -8 0 -17 -3 -20 -7z"/>
<path style="fill: white;" d="M335 1088 c-3 -7 -4 -101 -3 -208 3 -165 5 -195 18 -195 13 0 15 29
15 204 0 155 -3 205 -12 208 -7 3 -15 -1 -18 -9z"/>
<path style="fill: white;" d="M1070 1050 c0 -28 -5 -42 -19 -49 -38 -21 -192 -73 -198 -68 -15 15
11 35 78 61 41 16 80 35 88 42 31 29 -18 25 -105 -9 l-89 -34 -3 -121 -3 -121
-34 6 c-27 4 -38 0 -59 -20 -69 -69 20 -177 96 -117 27 20 27 24 30 143 l3
121 95 38 c52 20 101 37 108 37 8 1 12 -17 12 -58 l0 -60 -34 6 c-28 4 -39 1
-60 -20 -69 -70 20 -177 97 -117 l27 21 0 180 c0 152 -2 179 -15 179 -11 0
-15 -11 -15 -40z"/>
</g>
</svg>
