<?xml version="1.0" standalone="no"?>
<!DOCTYPE svg PUBLIC "-//W3C//DTD SVG 20010904//EN"
 "http://www.w3.org/TR/2001/REC-SVG-20010904/DTD/svg10.dtd">
<svg version="1.0" xmlns="http://www.w3.org/2000/svg"
 width="424.000000pt" height="408.000000pt" viewBox="0 0 424.000000 408.000000"
 preserveAspectRatio="xMidYMid meet">
<metadata>
Created by potrace 1.16, written by Peter Selinger 2001-2019
</metadata>
<g transform="translate(0.000000,408.000000) scale(0.100000,-0.100000)"
fill="#000000" stroke="none">
<path style="fill: white;" d="M2039 3840 c-505 -59 -973 -385 -1208 -840 -112 -217 -168 -426 -179
-665 l-7 -139 -38 -8 c-91 -19 -178 -94 -213 -184 -18 -46 -19 -81 -19 -544
l0 -495 28 -57 c34 -69 101 -131 164 -152 26 -9 77 -16 114 -16 l68 0 6 -55
c9 -67 37 -112 90 -142 37 -21 53 -23 196 -23 144 0 159 2 199 23 30 16 51 37
67 67 l23 43 0 814 c0 791 -1 815 -20 853 -17 33 -66 80 -83 80 -3 0 -17 4
-30 9 l-25 10 14 63 c22 104 42 158 94 263 234 474 796 705 1295 534 271 -93
508 -309 630 -572 33 -71 85 -242 85 -278 0 -10 -11 -19 -30 -22 -47 -10 -106
-70 -119 -122 -8 -30 -11 -282 -11 -827 1 -827 1 -829 47 -880 44 -49 83 -58
242 -58 82 0 162 5 178 11 65 24 113 95 113 167 l0 40 88 4 c101 5 145 24 210
89 82 84 82 83 82 632 0 297 -4 496 -10 519 -15 53 -69 128 -115 160 -22 15
-63 33 -91 40 l-51 12 -7 121 c-15 266 -65 458 -177 677 -88 170 -128 208
-173 162 -25 -24 -19 -49 24 -118 89 -141 157 -318 189 -494 21 -112 36 -242
28 -242 -2 0 -16 17 -30 38 -37 56 -78 72 -184 72 l-90 0 -12 66 c-43 234
-155 448 -326 619 -228 230 -513 348 -835 347 -325 -1 -611 -122 -839 -355
-179 -183 -270 -365 -327 -654 -4 -22 -9 -23 -98 -23 -105 0 -139 -15 -185
-80 l-23 -35 6 95 c13 180 57 340 141 515 89 184 195 324 355 468 183 165 430
288 690 344 121 26 439 26 560 0 295 -63 537 -192 762 -404 36 -35 70 -63 76
-63 17 0 62 41 62 57 0 23 -126 148 -225 223 -283 213 -615 323 -965 319 -63
-1 -145 -5 -181 -9z m-835 -1556 c14 -14 16 -102 16 -816 0 -732 -1 -803 -17
-820 -14 -16 -33 -18 -157 -18 -78 0 -146 4 -152 8 -32 21 -34 52 -34 565 0
498 -1 514 -20 532 -28 25 -65 13 -79 -26 -7 -21 -11 -171 -11 -445 l0 -414
-65 0 c-104 0 -163 40 -193 129 -16 46 -17 919 -1 976 6 22 28 56 48 76 40 41
91 59 164 59 l47 0 1 -62 c2 -109 22 -141 76 -122 l28 9 5 176 c4 128 9 180
19 192 20 24 301 25 325 1z m2378 -1 c17 -15 18 -54 18 -816 0 -731 -1 -802
-17 -819 -14 -16 -33 -18 -160 -18 -130 0 -145 2 -163 20 -20 20 -20 33 -20
813 0 701 2 795 16 815 14 21 22 22 161 22 122 0 149 -3 165 -17z m257 -203
c54 -15 100 -52 121 -96 19 -38 20 -62 20 -517 0 -312 -4 -485 -11 -504 -13
-34 -55 -80 -91 -99 -16 -8 -56 -14 -98 -14 l-70 0 0 620 0 620 48 0 c26 0 62
-4 81 -10z"/>
<path style="fill: white;" d="M1756 2598 c-14 -19 -16 -72 -16 -375 0 -340 1 -354 20 -373 25 -25
52 -26 73 -2 15 17 17 57 17 376 0 227 -4 364 -10 377 -15 27 -64 25 -84 -3z"/>
<path style="fill: white;" d="M2409 2603 c-11 -13 -15 -84 -17 -342 -2 -179 0 -345 3 -369 8 -52
39 -73 80 -54 l25 12 0 373 c0 277 -3 376 -12 385 -17 17 -63 15 -79 -5z"/>
<path style="fill: white;" d="M2198 2549 c-17 -9 -18 -35 -18 -318 0 -293 1 -309 20 -326 26 -23
68 -13 80 21 6 14 10 150 10 307 0 240 -2 286 -16 305 -16 23 -48 28 -76 11z"/>
<path style="fill: white;" d="M2626 2478 c-13 -19 -16 -60 -16 -245 0 -122 4 -233 10 -247 12 -34
54 -44 80 -21 19 17 20 32 20 261 0 207 -2 245 -16 258 -22 23 -60 20 -78 -6z"/>
<path style="fill: white;" d="M1548 2410 c-22 -17 -23 -25 -26 -172 -3 -165 5 -200 45 -206 12 -2
31 2 42 8 20 10 21 19 21 184 0 127 -3 176 -12 183 -27 21 -48 21 -70 3z"/>
<path style="fill: white;" d="M1977 2332 c-13 -14 -17 -39 -17 -105 0 -74 3 -90 21 -108 22 -22 55
-19 77 9 18 24 16 172 -4 200 -18 27 -55 29 -77 4z"/>
<path style="fill: white;" d="M2847 2332 c-13 -14 -17 -39 -17 -105 0 -74 3 -90 20 -107 11 -11 27
-20 35 -20 8 0 24 9 35 20 17 17 20 33 20 108 0 73 -3 92 -18 105 -24 22 -55
21 -75 -1z"/>
<path style="fill: white;" d="M2110 1654 c-253 -48 -460 -243 -531 -499 -30 -109 -24 -276 14 -383
44 -125 149 -272 219 -308 27 -14 32 -14 54 1 36 23 32 66 -8 102 -82 71 -146
176 -173 280 -19 73 -19 212 0 283 51 193 211 355 401 405 72 19 221 20 289 2
132 -36 248 -119 323 -232 145 -215 131 -482 -36 -681 -125 -151 -335 -228
-525 -192 -96 18 -122 10 -122 -42 0 -44 21 -55 136 -70 332 -41 646 173 735
500 21 79 24 241 5 320 -7 30 -33 97 -58 149 -75 156 -213 277 -385 338 -60
22 -93 27 -193 29 -66 1 -131 0 -145 -2z"/>
<path style="fill: white;" d="M2295 1289 c-38 -23 -140 -82 -225 -131 -85 -49 -163 -98 -172 -109
-26 -30 -23 -92 5 -123 12 -13 121 -81 243 -150 223 -128 258 -141 305 -116
45 24 49 54 49 323 0 269 -5 305 -45 331 -40 26 -84 19 -160 -25z m95 -299 c0
-121 -3 -220 -7 -220 -19 0 -381 216 -374 223 12 12 364 216 374 217 4 0 7
-99 7 -220z"/>
</g>
</svg>
