<svg xmlns="http://www.w3.org/2000/svg" xmlns:xlink="http://www.w3.org/1999/xlink" viewBox="0 0 12729 8684.23"><defs><style>.a{fill:url(#a);}.b{fill:url(#b);}.c{fill:url(#c);}.d{fill:url(#d);}.e{fill:url(#e);}.f{fill:url(#f);}.g{fill:url(#g);}.h{fill:url(#h);}.i{fill:url(#i);}.j{fill:url(#j);}.k{fill:url(#k);}.l{fill:url(#l);}.m{fill:url(#m);}.n{fill:url(#n);}.o{fill:url(#o);}.p{fill:url(#p);}.q{fill:url(#q);}.r{fill:url(#r);}.s{fill:url(#s);}.t{fill:url(#t);}.u{fill:url(#u);}.v{fill:url(#v);}.w{fill:url(#w);}.x{fill:url(#x);}.y{fill:url(#y);}.z{fill:url(#z);}.aa{fill:url(#aa);}.ab{fill:url(#ab);}.ac{fill:url(#ac);}.ad{fill:url(#ad);}.ae{fill:url(#ae);}.af{fill:url(#af);}.ag{fill:url(#ag);}.ah{fill:url(#ah);}.ai{fill:url(#ai);}.aj{fill:url(#aj);}.ak{fill:url(#ak);}.al{fill:url(#al);}.am{fill:url(#am);}.an{fill:url(#an);}.ao{fill:url(#ao);}.ap{fill:url(#ap);}.aq{fill:url(#aq);}.ar{fill:url(#ar);}.as{fill:url(#as);}.at{fill:url(#at);}.au{fill:url(#au);}.av{fill:url(#av);}.aw{fill:url(#aw);}.ax{fill:url(#ax);}.ay{fill:none;stroke:#ff10fb;stroke-linecap:round;stroke-linejoin:round;stroke-width:105px;}</style><radialGradient id="a" cx="-165.5" cy="5111" r="6812.43" gradientTransform="matrix(1, 0, 0, 0.48, 6530.53, 1859.82)" gradientUnits="userSpaceOnUse"><stop offset="0.3" stop-color="#3d0068"/><stop offset="1"/></radialGradient><radialGradient id="b" cx="-3825.43" cy="5291.48" r="1113.87" gradientTransform="translate(6530 1734.74) scale(1 0.52)" gradientUnits="userSpaceOnUse"><stop offset="0.02" stop-color="#c432ff"/><stop offset="0.47" stop-color="#5a27c1"/><stop offset="1" stop-color="#3713d7" stop-opacity="0"/></radialGradient><radialGradient id="c" cx="1729.57" cy="5291.48" r="1113.87" gradientTransform="translate(6674.02 1734.74) scale(0.95 0.52)" xlink:href="#b"/><radialGradient id="d" cx="4376.43" cy="5285.48" r="1113.87" gradientTransform="translate(7487.2 2752.15) scale(0.69 0.32)" xlink:href="#b"/><radialGradient id="e" cx="-792.43" cy="5317.48" r="1113.87" gradientTransform="translate(6508.91 -602.94) scale(1.04 0.96)" xlink:href="#b"/><radialGradient id="f" cx="-5201.36" cy="5273.71" r="143.62" gradientTransform="translate(0 -2782.93) scale(1 1.54)" gradientUnits="userSpaceOnUse"><stop offset="0.5" stop-color="#4100cd"/><stop offset="1" stop-color="#3d0068" stop-opacity="0"/></radialGradient><radialGradient id="g" cx="4870.14" cy="5273.71" r="113.12" xlink:href="#f"/><radialGradient id="h" cx="-4972.07" cy="5273.71" r="303.26" xlink:href="#f"/><radialGradient id="i" cx="-4742.77" cy="5273.71" r="462.48" xlink:href="#f"/><radialGradient id="j" cx="-4513.47" cy="5273.71" r="631.59" xlink:href="#f"/><radialGradient id="k" cx="-4284.18" cy="5273.71" r="779.64" xlink:href="#f"/><radialGradient id="l" cx="-4054.88" cy="5273.71" r="941.17" xlink:href="#f"/><radialGradient id="m" cx="-2449.8" cy="5273.71" r="210.3" xlink:href="#f"/><radialGradient id="n" cx="-2679.1" cy="5273.71" r="303.26" xlink:href="#f"/><radialGradient id="o" cx="-2908.4" cy="5273.71" r="462.48" xlink:href="#f"/><radialGradient id="p" cx="-3137.69" cy="5273.71" r="631.59" xlink:href="#f"/><radialGradient id="q" cx="-3366.99" cy="5273.71" r="779.64" xlink:href="#f"/><radialGradient id="r" cx="-3596.29" cy="5273.71" r="941.17" xlink:href="#f"/><radialGradient id="s" cx="-3825.58" cy="5273.71" r="1008.25" xlink:href="#f"/><radialGradient id="t" cx="531.05" cy="5273.71" r="289.94" xlink:href="#f"/><radialGradient id="u" cx="760.35" cy="5273.71" r="346.06" xlink:href="#f"/><radialGradient id="v" cx="989.64" cy="5273.71" r="584.07" xlink:href="#f"/><radialGradient id="w" cx="1218.94" cy="5273.71" r="772.05" xlink:href="#f"/><radialGradient id="x" cx="1448.24" cy="5273.71" r="975.2" xlink:href="#f"/><radialGradient id="y" cx="3053.31" cy="5273.71" r="176.81" xlink:href="#f"/><radialGradient id="z" cx="2824.02" cy="5273.71" r="257.24" xlink:href="#f"/><radialGradient id="aa" cx="2594.72" cy="5273.71" r="446.31" xlink:href="#f"/><radialGradient id="ab" cx="2365.42" cy="5273.71" r="681.3" xlink:href="#f"/><radialGradient id="ac" cx="2136.13" cy="5273.71" r="792.37" xlink:href="#f"/><radialGradient id="ad" cx="1906.83" cy="5273.71" r="954.52" xlink:href="#f"/><radialGradient id="ae" cx="1677.53" cy="5273.71" r="1073.11" xlink:href="#f"/><radialGradient id="af" cx="3282.61" cy="5273.71" r="275.52" xlink:href="#f"/><radialGradient id="ag" cx="3511.9" cy="5273.71" r="436.83" xlink:href="#f"/><radialGradient id="ah" cx="3741.2" cy="5273.71" r="600.16" xlink:href="#f"/><radialGradient id="ai" cx="4658.39" cy="5273.71" r="202.59" xlink:href="#f"/><radialGradient id="aj" cx="4429.09" cy="5273.71" r="333.27" xlink:href="#f"/><radialGradient id="ak" cx="4199.79" cy="5273.71" r="570.46" xlink:href="#f"/><radialGradient id="al" cx="3970.5" cy="5273.71" r="658.96" xlink:href="#f"/><radialGradient id="am" cx="-2220.51" cy="5273.71" r="309.93" xlink:href="#f"/><radialGradient id="an" cx="-1991.21" cy="5273.71" r="566.42" xlink:href="#f"/><radialGradient id="ao" cx="-1761.91" cy="5273.71" r="941.17" xlink:href="#f"/><radialGradient id="ap" cx="-1532.62" cy="5273.71" r="1185.16" xlink:href="#f"/><radialGradient id="aq" cx="-1303.32" cy="5273.71" r="1545.09" xlink:href="#f"/><radialGradient id="ar" cx="-1074.02" cy="5273.71" r="1795.48" xlink:href="#f"/><radialGradient id="as" cx="301.75" cy="5273.71" r="537.08" xlink:href="#f"/><radialGradient id="at" cx="72.46" cy="5273.71" r="851.71" xlink:href="#f"/><radialGradient id="au" cx="-156.84" cy="5273.71" r="1205.85" xlink:href="#f"/><radialGradient id="av" cx="-386.14" cy="5273.71" r="1602.13" xlink:href="#f"/><radialGradient id="aw" cx="-615.43" cy="5273.71" r="1795.48" xlink:href="#f"/><radialGradient id="ax" cx="-844.73" cy="5273.71" r="1927.66" xlink:href="#f"/></defs><rect class="a" width="12729" height="8582"/><polygon class="b" points="1381.14 4384.23 1505.43 4248.62 1610.43 4248.62 1734.73 4105.62 1839.73 4105.62 1964.03 3954.12 2069.03 3954.12 2193.32 3821.62 2298.32 3821.62 2422.62 3677.12 2527.62 3677.12 2651.92 3617.12 2756.92 3617.12 2881.21 3677.12 2986.21 3677.12 3111 3822 3215.51 3821.62 3339.81 3954.12 3444.81 3954.12 3569.1 4105.62 3674.1 4105.62 3798.4 4248.62 3903.4 4248.62 4028 4355 4028 4575.23 3903.4 4681.62 3798.4 4681.62 3674.1 4824.62 3569.1 4824.62 3444.81 4976.12 3339.81 4976.12 3216 5109 3110.51 5109 2986.21 5253.12 2881.21 5253.12 2756.92 5325.85 2651.92 5325.85 2527.62 5253.12 2422.62 5253.12 2298.32 5117.51 2193.32 5119.55 2069.03 4976.12 1964.03 4976.12 1839.73 4824.62 1734.73 4824.62 1610.43 4681.62 1505.43 4681.62 1381.14 4536.62 1381.14 4384.23 1381.14 4384.23"/><polygon class="c" points="7061 4384.23 7179.43 4248.62 7279.48 4248.62 7397.91 4105.62 7497.96 4105.62 7616.39 3954.12 7716.44 3954.12 7834.87 3821.62 7934.92 3821.62 8053.35 3677.12 8153.4 3677.12 8271.83 3617.12 8371.88 3617.12 8490.31 3677.12 8590.36 3677.12 8709.26 3822 8808.84 3821.62 8927.27 3954.12 9027.32 3954.12 9145.75 4105.62 9245.8 4105.62 9364.23 4248.62 9464.28 4248.62 9583 4355 9583 4575.23 9464.28 4681.62 9364.23 4681.62 9245.8 4824.62 9145.75 4824.62 9027.32 4976.12 8927.27 4976.12 8809.31 5109 8708.79 5109 8590.36 5253.12 8490.31 5253.12 8371.88 5325.85 8271.83 5325.85 8153.4 5253.12 8053.35 5253.12 7934.92 5117.51 7834.87 5119.55 7716.44 4976.12 7616.39 4976.12 7497.96 4824.62 7397.91 4824.62 7279.48 4681.62 7179.43 4681.62 7061 4536.62 7061 4384.23 7061 4384.23"/><polygon class="d" points="9583 4410.8 9668.33 4325.8 9740.41 4325.8 9825.73 4236.17 9897.81 4236.17 9983.14 4141.22 10055.22 4141.22 10140.54 4058.17 10212.62 4058.17 10297.95 3967.61 10370.03 3967.61 10455.36 3930 10527.44 3930 10612.76 3967.61 10684.84 3967.61 10770.5 4058.41 10842.25 4058.17 10927.57 4141.22 10999.65 4141.22 11084.98 4236.17 11157.06 4236.17 11242.39 4325.8 11314.47 4325.8 11400 4392.48 11400 4530.51 11314.47 4597.19 11242.39 4597.19 11157.06 4686.81 11084.98 4686.81 10999.65 4781.77 10927.57 4781.77 10842.58 4865.05 10770.17 4865.05 10684.84 4955.38 10612.76 4955.38 10527.44 5000.97 10455.36 5000.97 10370.03 4955.38 10297.95 4955.38 10212.62 4870.39 10140.54 4871.67 10055.22 4781.77 9983.14 4781.77 9897.81 4686.81 9825.73 4686.81 9740.41 4597.19 9668.33 4597.19 9583 4506.31 9583 4410.8 9583 4410.8"/><polygon class="e" points="4309 4335.67 4438.23 4084.16 4547.4 4084.16 4676.64 3818.96 4785.81 3818.96 4915.04 3537.99 5024.21 3537.99 5153.45 3292.26 5262.62 3292.26 5391.85 3024.27 5501.02 3024.27 5630.26 2913 5739.43 2913 5868.66 3024.27 5977.83 3024.27 6107.57 3292.97 6216.24 3292.26 6345.47 3537.99 6454.64 3537.99 6583.88 3818.96 6693.05 3818.96 6822.28 4084.16 6931.45 4084.16 7061 4281.46 7061 4689.9 6931.45 4887.19 6822.28 4887.19 6693.05 5152.39 6583.88 5152.39 6454.64 5433.36 6345.47 5433.36 6216.75 5679.8 6107.07 5679.8 5977.83 5947.08 5868.66 5947.08 5739.43 6081.97 5630.26 6081.97 5501.02 5947.08 5391.85 5947.08 5262.62 5695.59 5153.45 5699.37 5024.21 5433.36 4915.04 5433.36 4785.81 5152.39 4676.64 5152.39 4547.4 4887.19 4438.23 4887.19 4309 4618.28 4309 4335.67 4309 4335.67"/><path class="f" d="M-5201.36,5619c-29,0-52.5-57.12-52.5-127.6V5143.83c0-70.47,23.5-127.6,52.5-127.6s52.5,57.13,52.5,127.6V5491.4C-5148.86,5561.88-5172.37,5619-5201.36,5619Z" transform="translate(6530 -820)"/><path class="g" d="M4870.14,5549.73c-29,0-52.5-57.13-52.5-127.6v-209c0-70.47,23.5-127.6,52.5-127.6s52.5,57.13,52.5,127.6v209C4922.64,5492.6,4899.13,5549.73,4870.14,5549.73Z" transform="translate(6530 -820)"/><path class="h" d="M-4972.07,5971.43c-29,0-52.5-57.13-52.5-127.6V4791.4c0-70.47,23.51-127.6,52.5-127.6s52.5,57.13,52.5,127.6V5843.83C-4919.57,5914.3-4943.07,5971.43-4972.07,5971.43Z" transform="translate(6530 -820)"/><path class="i" d="M-4742.77,6319c-29,0-52.5-57.13-52.5-127.6V4443.84c0-70.48,23.51-127.61,52.5-127.61s52.5,57.13,52.5,127.61V6191.4C-4690.27,6261.87-4713.77,6319-4742.77,6319Z" transform="translate(6530 -820)"/><path class="j" d="M-4513.47,6687.23c-29,0-52.5-57.13-52.5-127.6v-2484c0-70.48,23.5-127.61,52.5-127.61s52.5,57.13,52.5,127.61v2484C-4461,6630.1-4484.48,6687.23-4513.47,6687.23Z" transform="translate(6530 -820)"/><path class="k" d="M-4284.18,7009.28c-29,0-52.5-57.13-52.5-127.61V3753.56c0-70.47,23.51-127.6,52.5-127.6s52.5,57.13,52.5,127.6V6881.67C-4231.68,6952.15-4255.18,7009.28-4284.18,7009.28Z" transform="translate(6530 -820)"/><path class="l" d="M-4054.88,7360.49c-29,0-52.5-57.13-52.5-127.6V3402.35c0-70.48,23.51-127.61,52.5-127.61s52.5,57.13,52.5,127.61V7232.89C-4002.38,7303.36-4025.88,7360.49-4054.88,7360.49Z" transform="translate(6530 -820)"/><path class="m" d="M-2449.8,5767.27c-29,0-52.5-57.13-52.5-127.61V4995.57c0-70.47,23.5-127.6,52.5-127.6s52.5,57.13,52.5,127.6v644.09C-2397.3,5710.14-2420.81,5767.27-2449.8,5767.27Z" transform="translate(6530 -820)"/><path class="n" d="M-2679.1,5971.43c-29,0-52.5-57.13-52.5-127.6V4791.4c0-70.47,23.5-127.6,52.5-127.6s52.5,57.13,52.5,127.6V5843.83C-2626.6,5914.3-2650.11,5971.43-2679.1,5971.43Z" transform="translate(6530 -820)"/><path class="o" d="M-2908.4,6319c-29,0-52.5-57.13-52.5-127.6V4443.84c0-70.48,23.51-127.61,52.5-127.61s52.5,57.13,52.5,127.61V6191.4C-2855.9,6261.87-2879.4,6319-2908.4,6319Z" transform="translate(6530 -820)"/><path class="p" d="M-3137.69,6687.23c-29,0-52.5-57.13-52.5-127.6v-2484c0-70.48,23.5-127.61,52.5-127.61s52.5,57.13,52.5,127.61v2484C-3085.19,6630.1-3108.7,6687.23-3137.69,6687.23Z" transform="translate(6530 -820)"/><path class="q" d="M-3367,7009.28c-29,0-52.5-57.13-52.5-127.61V3753.56c0-70.47,23.51-127.6,52.5-127.6s52.5,57.13,52.5,127.6V6881.67C-3314.49,6952.15-3338,7009.28-3367,7009.28Z" transform="translate(6530 -820)"/><path class="r" d="M-3596.29,7360.49c-29,0-52.5-57.13-52.5-127.6V3402.35c0-70.48,23.51-127.61,52.5-127.61s52.5,57.13,52.5,127.61V7232.89C-3543.79,7303.36-3567.29,7360.49-3596.29,7360.49Z" transform="translate(6530 -820)"/><path class="s" d="M-3825.58,7506.32c-29,0-52.5-57.13-52.5-127.6V3256.51c0-70.47,23.5-127.6,52.5-127.6s52.5,57.13,52.5,127.6V7378.72C-3773.08,7449.19-3796.59,7506.32-3825.58,7506.32Z" transform="translate(6530 -820)"/><path class="t" d="M531.05,5942.27c-29,0-52.5-57.13-52.5-127.61V4820.57c0-70.47,23.51-127.6,52.5-127.6s52.5,57.13,52.5,127.6v994.09C583.55,5885.14,560.05,5942.27,531.05,5942.27Z" transform="translate(6530 -820)"/><path class="u" d="M760.35,6065c-29,0-52.5-57.13-52.5-127.6V4697.83c0-70.48,23.5-127.61,52.5-127.61s52.5,57.13,52.5,127.61V5937.41C812.85,6007.88,789.34,6065,760.35,6065Z" transform="translate(6530 -820)"/><path class="v" d="M989.64,6583.81c-29,0-52.5-57.13-52.5-127.6V4179c0-70.48,23.51-127.61,52.5-127.61s52.5,57.13,52.5,127.61V6456.21C1042.14,6526.68,1018.64,6583.81,989.64,6583.81Z" transform="translate(6530 -820)"/><path class="w" d="M1218.94,6992.77c-29,0-52.5-57.13-52.5-127.6V3770.07c0-70.48,23.5-127.61,52.5-127.61s52.5,57.13,52.5,127.61v3095.1C1271.44,6935.64,1247.94,6992.77,1218.94,6992.77Z" transform="translate(6530 -820)"/><path class="x" d="M1448.24,7434.48c-29,0-52.5-57.13-52.5-127.6V3328.36c0-70.47,23.5-127.6,52.5-127.6s52.5,57.13,52.5,127.6V7306.88C1500.74,7377.35,1477.23,7434.48,1448.24,7434.48Z" transform="translate(6530 -820)"/><path class="y" d="M3053.31,5693.14c-29,0-52.5-57.13-52.5-127.6V5069.7c0-70.47,23.51-127.6,52.5-127.6s52.5,57.13,52.5,127.6v495.84C3105.81,5636,3082.31,5693.14,3053.31,5693.14Z" transform="translate(6530 -820)"/><path class="z" d="M2824,5870.57c-29,0-52.5-57.13-52.5-127.61V4892.27c0-70.47,23.5-127.6,52.5-127.6s52.5,57.13,52.5,127.6V5743C2876.52,5813.44,2853,5870.57,2824,5870.57Z" transform="translate(6530 -820)"/><path class="aa" d="M2594.72,6283.76c-29,0-52.5-57.13-52.5-127.6V4479.08c0-70.48,23.5-127.61,52.5-127.61s52.5,57.13,52.5,127.61V6156.16C2647.22,6226.63,2623.71,6283.76,2594.72,6283.76Z" transform="translate(6530 -820)"/><path class="ab" d="M2365.42,6795.39c-29,0-52.5-57.13-52.5-127.6V3967.45c0-70.48,23.51-127.61,52.5-127.61s52.5,57.13,52.5,127.61V6667.79C2417.92,6738.26,2394.42,6795.39,2365.42,6795.39Z" transform="translate(6530 -820)"/><path class="ac" d="M2136.13,7037c-29,0-52.5-57.13-52.5-127.61V3725.87c0-70.47,23.5-127.6,52.5-127.6s52.5,57.13,52.5,127.6V6909.36C2188.63,6979.84,2165.12,7037,2136.13,7037Z" transform="translate(6530 -820)"/><path class="ad" d="M1906.83,7389.52c-29,0-52.5-57.13-52.5-127.61V3373.32c0-70.47,23.5-127.6,52.5-127.6s52.5,57.13,52.5,127.6V7261.91C1959.33,7332.39,1935.82,7389.52,1906.83,7389.52Z" transform="translate(6530 -820)"/><path class="ae" d="M1677.53,7647.3c-29,0-52.5-57.13-52.5-127.61V3115.54c0-70.47,23.51-127.6,52.5-127.6s52.5,57.13,52.5,127.6V7519.69C1730,7590.17,1706.53,7647.3,1677.53,7647.3Z" transform="translate(6530 -820)"/><path class="af" d="M3282.61,5910.67c-29,0-52.5-57.13-52.5-127.6v-930.9c0-70.48,23.5-127.61,52.5-127.61s52.5,57.13,52.5,127.61v930.9C3335.11,5853.54,3311.6,5910.67,3282.61,5910.67Z" transform="translate(6530 -820)"/><path class="ag" d="M3511.9,6263.1c-29,0-52.5-57.13-52.5-127.6V4499.74c0-70.48,23.51-127.61,52.5-127.61s52.5,57.13,52.5,127.61V6135.5C3564.4,6206,3540.9,6263.1,3511.9,6263.1Z" transform="translate(6530 -820)"/><path class="ah" d="M3741.2,6618.84c-29,0-52.5-57.13-52.5-127.61V4144c0-70.47,23.51-127.6,52.5-127.6s52.5,57.13,52.5,127.6V6491.23C3793.7,6561.71,3770.2,6618.84,3741.2,6618.84Z" transform="translate(6530 -820)"/><path class="ai" d="M4658.39,5750.25c-29,0-52.5-57.13-52.5-127.6V5012.59c0-70.48,23.5-127.61,52.5-127.61s52.5,57.13,52.5,127.61v610.06C4710.89,5693.12,4687.38,5750.25,4658.39,5750.25Z" transform="translate(6530 -820)"/><path class="aj" d="M4429.09,6037.06c-29,0-52.5-57.13-52.5-127.6V4725.78c0-70.47,23.51-127.6,52.5-127.6s52.5,57.13,52.5,127.6V5909.46C4481.59,5979.93,4458.09,6037.06,4429.09,6037.06Z" transform="translate(6530 -820)"/><path class="ak" d="M4199.79,6554.19c-29,0-52.5-57.13-52.5-127.61V4208.65c0-70.47,23.51-127.6,52.5-127.6s52.5,57.13,52.5,127.6V6426.58C4252.29,6497.06,4228.79,6554.19,4199.79,6554.19Z" transform="translate(6530 -820)"/><path class="al" d="M3970.5,6746.78c-29,0-52.5-57.13-52.5-127.61V4016.06c0-70.47,23.5-127.6,52.5-127.6s52.5,57.13,52.5,127.6V6619.17C4023,6689.65,3999.49,6746.78,3970.5,6746.78Z" transform="translate(6530 -820)"/><path class="am" d="M-2220.51,5986c-29,0-52.5-57.13-52.5-127.61V4776.82c0-70.47,23.51-127.6,52.5-127.6s52.5,57.13,52.5,127.6V5858.41C-2168,5928.89-2191.51,5986-2220.51,5986Z" transform="translate(6530 -820)"/><path class="an" d="M-1991.21,6545.39c-29,0-52.5-57.13-52.5-127.6V4217.45c0-70.48,23.5-127.61,52.5-127.61s52.5,57.13,52.5,127.61V6417.79C-1938.71,6488.26-1962.22,6545.39-1991.21,6545.39Z" transform="translate(6530 -820)"/><path class="ao" d="M-1761.91,7360.49c-29,0-52.5-57.13-52.5-127.6V3402.35c0-70.48,23.5-127.61,52.5-127.61s52.5,57.13,52.5,127.61V7232.89C-1709.41,7303.36-1732.92,7360.49-1761.91,7360.49Z" transform="translate(6530 -820)"/><path class="ap" d="M-1532.62,7890.83c-29,0-52.5-57.13-52.5-127.6V2872c0-70.48,23.51-127.61,52.5-127.61s52.5,57.13,52.5,127.61V7763.23C-1480.12,7833.7-1503.62,7890.83-1532.62,7890.83Z" transform="translate(6530 -820)"/><path class="aq" d="M-1303.32,8673c-29,0-52.5-57.13-52.5-127.61V2089.85c0-70.47,23.5-127.6,52.5-127.6s52.5,57.13,52.5,127.6V8545.38C-1250.82,8615.86-1274.33,8673-1303.32,8673Z" transform="translate(6530 -820)"/><path class="ar" d="M-1074,9217c-29,0-52.5-57.13-52.5-127.6V1545.8c0-70.48,23.5-127.61,52.5-127.61s52.5,57.13,52.5,127.61V9089.44C-1021.52,9159.91-1045,9217-1074,9217Z" transform="translate(6530 -820)"/><path class="as" d="M301.75,6481.51c-29,0-52.5-57.13-52.5-127.6V4281.32c0-70.47,23.51-127.6,52.5-127.6s52.5,57.13,52.5,127.6V6353.91C354.25,6424.38,330.75,6481.51,301.75,6481.51Z" transform="translate(6530 -820)"/><path class="at" d="M72.46,7166c-29,0-52.5-57.13-52.5-127.6V3596.84c0-70.47,23.5-127.6,52.5-127.6s52.5,57.13,52.5,127.6V7038.39C125,7108.86,101.45,7166,72.46,7166Z" transform="translate(6530 -820)"/><path class="au" d="M-156.84,7935.8c-29,0-52.5-57.13-52.5-127.61V2827c0-70.47,23.51-127.6,52.5-127.6s52.5,57.13,52.5,127.6V7808.19C-104.34,7878.67-127.84,7935.8-156.84,7935.8Z" transform="translate(6530 -820)"/><path class="av" d="M-386.14,8796.94c-29,0-52.5-57.12-52.5-127.6V1965.89c0-70.47,23.51-127.6,52.5-127.6s52.5,57.13,52.5,127.6V8669.34C-333.64,8739.82-357.14,8796.94-386.14,8796.94Z" transform="translate(6530 -820)"/><path class="aw" d="M-615.43,9217c-29,0-52.5-57.13-52.5-127.6V1545.8c0-70.48,23.5-127.61,52.5-127.61s52.5,57.13,52.5,127.61V9089.44C-562.93,9159.91-586.44,9217-615.43,9217Z" transform="translate(6530 -820)"/><path class="ax" d="M-844.73,9504.23c-29,0-52.5-57.13-52.5-127.6v-8118c0-70.47,23.51-127.6,52.5-127.6s52.5,57.13,52.5,127.6v8118C-792.23,9447.1-815.73,9504.23-844.73,9504.23Z" transform="translate(6530 -820)"/><line class="ay" x1="1329" y1="4393.62" x2="1329" y2="4536.62"/><line class="ay" x1="11400.14" y1="4422.12" x2="11400.14" y2="4508.12"/><line class="ay" x1="1558.29" y1="4248.62" x2="1558.29" y2="4681.62"/><line class="ay" x1="1787.58" y1="4105.62" x2="1787.58" y2="4824.62"/><line class="ay" x1="2016.86" y1="3954.12" x2="2016.86" y2="4976.12"/><line class="ay" x1="2246.15" y1="3821.62" x2="2246.15" y2="5108.62"/><line class="ay" x1="2475.44" y1="3677.12" x2="2475.44" y2="5253.12"/><line class="ay" x1="4080.46" y1="4355" x2="4080.46" y2="4575.23"/><line class="ay" x1="3851.17" y1="4248.62" x2="3851.17" y2="4681.62"/><line class="ay" x1="3621.88" y1="4105.62" x2="3621.88" y2="4824.62"/><line class="ay" x1="3392.59" y1="3954.12" x2="3392.59" y2="4976.12"/><line class="ay" x1="3163.31" y1="3821.62" x2="3163.31" y2="5108.62"/><line class="ay" x1="2934.02" y1="3677.12" x2="2934.02" y2="5253.12"/><line class="ay" x1="2704.73" y1="3617.12" x2="2704.73" y2="5313.12"/><line class="ay" x1="7061.21" y1="4260.62" x2="7061.21" y2="4669.62"/><line class="ay" x1="7290.49" y1="4210.12" x2="7290.49" y2="4720.12"/><line class="ay" x1="7519.78" y1="3996.67" x2="7519.78" y2="4933.57"/><line class="ay" x1="7749.07" y1="3828.41" x2="7749.07" y2="5101.83"/><line class="ay" x1="7978.36" y1="3646.68" x2="7978.36" y2="5283.56"/><line class="ay" x1="9583.38" y1="4363.12" x2="9583.38" y2="4567.12"/><line class="ay" x1="9354.09" y1="4290.12" x2="9354.09" y2="4640.12"/><line class="ay" x1="9124.8" y1="4120.12" x2="9124.8" y2="4810.12"/><line class="ay" x1="8895.51" y1="3909.62" x2="8895.51" y2="5020.62"/><line class="ay" x1="8666.22" y1="3810.22" x2="8666.22" y2="5120.01"/><line class="ay" x1="8436.94" y1="3665.18" x2="8436.94" y2="5265.06"/><line class="ay" x1="8207.65" y1="3559.12" x2="8207.65" y2="5371.12"/><line class="ay" x1="9812.67" y1="4273.62" x2="9812.67" y2="4656.62"/><line class="ay" x1="10041.95" y1="4128.62" x2="10041.95" y2="4801.62"/><line class="ay" x1="10271.24" y1="3982.26" x2="10271.24" y2="4947.98"/><line class="ay" x1="11188.39" y1="4339.62" x2="11188.39" y2="4590.62"/><line class="ay" x1="10959.11" y1="4221.62" x2="10959.11" y2="4708.62"/><line class="ay" x1="10729.82" y1="4008.86" x2="10729.82" y2="4921.38"/><line class="ay" x1="10500.53" y1="3929.62" x2="10500.53" y2="5000.62"/><line class="ay" x1="4309.75" y1="4242.62" x2="4309.75" y2="4687.62"/><line class="ay" x1="4539.04" y1="4012.47" x2="4539.04" y2="4917.76"/><line class="ay" x1="4768.32" y1="3677.12" x2="4768.32" y2="5253.12"/><line class="ay" x1="4997.61" y1="3458.92" x2="4997.61" y2="5471.31"/><line class="ay" x1="5226.9" y1="3137.12" x2="5226.9" y2="5793.12"/><line class="ay" x1="5456.19" y1="2913.28" x2="5456.19" y2="6016.96"/><line class="ay" x1="6831.92" y1="4038.75" x2="6831.92" y2="4891.48"/><line class="ay" x1="6602.63" y1="3757.14" x2="6602.63" y2="5173.09"/><line class="ay" x1="6373.34" y1="3440.42" x2="6373.34" y2="5489.81"/><line class="ay" x1="6144.05" y1="3086.12" x2="6144.05" y2="5844.12"/><line class="ay" x1="5914.77" y1="2913.28" x2="5914.77" y2="6016.96"/><line class="ay" x1="5685.48" y1="2795.12" x2="5685.48" y2="6135.12"/></svg>